Coordinates
version=1
nRows=10
nColumns=28
inDegrees=yes

Units are S.I. units (second, meters, Newtons, ...)
Angles are in degrees.

endheader
time	pelvis_tilt	pelvis_list	pelvis_rotation	pelvis_tx	pelvis_ty	pelvis_tz	hip_flexion_r	hip_adduction_r	hip_rotation_r	knee_angle_r	ankle_angle_r	subtalar_angle_r	mtp_angle_r	hip_flexion_l	hip_adduction_l	hip_rotation_l	knee_angle_l	socket_flexion	socket_adduction	socket_rotation	socket_tx	socket_ty	socket_tz	foot_flex	lumbar_extension	lumbar_bending	lumbar_rotation
      0.95000000	      4.91759430	     -3.95160695	     -5.68726435	      0.42379032	      1.03854474	      0.34336036	     -2.93432457	      9.05450574	      2.77805740	    -14.94272708	     10.22552907	     -8.88910162	      5.60370077	      4.05584151	    -10.79749766	    -10.44944102	    -59.33271463	      0.17498033	      0.00000000	      0.00000000	      0.00000000	      0.00000000	      0.00000000	     -0.74444074	    -12.35891400	      2.65469416	      8.07226886
      0.95416667	      4.88801906	     -3.81211215	     -5.91009129	      0.42854067	      1.03938993	      0.34387187	     -3.39301673	      8.83360280	      2.84500857	    -14.54930635	     10.10728971	     -8.57201723	      5.66884340	      4.64583432	    -10.65627893	    -10.40536956	    -58.85233192	      0.23262200	      0.00000000	      0.00000000	      0.00000000	      0.00000000	      0.00000000	     -0.75026330	    -12.37155866	      2.45942978	      8.22776193
      0.95833333	      4.86489722	     -3.66855451	     -6.14924022	      0.43328141	      1.04017350	      0.34440190	     -3.83425109	      8.59946557	      2.87929623	    -14.19655714	     10.00688240	     -8.27390852	      5.73912427	      5.20829933	    -10.51514136	    -10.39677062	    -58.34117842	      0.27923240	      0.00000000	      0.00000000	      0.00000000	      0.00000000	      0.00000000	     -0.74410905	    -12.39063459	      2.22826257	      8.39718928
      0.96250000	      4.84634132	     -3.50654930	     -6.38930104	      0.43803119	      1.04096861	      0.34496682	     -4.27787266	      8.34667467	      2.93116910	    -13.84717611	      9.90642626	     -7.93721614	      5.82883186	      5.74477754	    -10.34336858	    -10.37147621	    -57.73738896	      0.36038964	      0.00000000	      0.00000000	      0.00000000	      0.00000000	      0.00000000	     -0.74177071	    -12.40653123	      1.98922825	      8.60275260
      0.96666667	      4.86894696	     -3.51499114	     -6.65622717	      0.44234609	      1.04149273	      0.34542503	     -4.59889224	      8.26289279	      2.86282682	    -13.83661498	      9.90666667	     -7.90585970	      5.83990892	      6.31308911	    -10.37802438	    -10.36366151	    -57.41447253	      0.23667298	      0.00000000	      0.00000000	      0.00000000	      0.00000000	      0.00000000	     -0.71672499	    -12.56527053	      1.95927902	      8.62591680
      0.97083333	      4.78477915	     -3.33739985	     -6.82885249	      0.44719965	      1.04224890	      0.34590823	     -5.09011016	      8.01202306	      3.02479677	    -13.22809207	      9.80355704	     -7.45809367	      5.92080598	      6.89081094	    -10.17886713	    -10.27283834	    -56.62285077	      0.43895340	      0.00000000	      0.00000000	      0.00000000	      0.00000000	      0.00000000	     -0.76334282	    -12.48131832	      1.69608824	      8.86961249
      0.97500000	      4.80595972	     -3.34351833	     -7.08451815	      0.45153128	      1.04265019	      0.34640845	     -5.40688880	      7.92835437	      2.96182696	    -13.22548277	      9.79550169	     -7.42421801	      5.92993747	      7.44263934	    -10.21430698	    -10.25624837	    -56.26168947	      0.28483006	      0.00000000	      0.00000000	      0.00000000	      0.00000000	      0.00000000	     -0.72731285	    -12.62614408	      1.65856467	      8.89457443
      0.97916667	      4.85769271	     -2.84851324	     -7.42240744	      0.45659378	      1.04370680	      0.34718177	     -5.94384509	      7.26677210	      2.97135974	    -12.74424645	      9.51954998	     -6.63044562	      6.27438494	      7.65918429	     -9.63116961	    -10.39212267	    -54.91554909	      0.76209013	      0.00000000	      0.00000000	      0.00000000	      0.00000000	      0.00000000	     -0.68798550	    -12.61528720	      0.94521836	      9.48601765
      0.98333333	      4.87045555	     -2.88679719	     -7.65883386	      0.46084288	      1.04397858	      0.34764656	     -6.25325523	      7.21718955	      2.92045449	    -12.72549895	      9.54473245	     -6.59671628	      6.29313409	      8.22310347	     -9.70835750	    -10.35521351	    -54.53002625	      0.60492970	      0.00000000	      0.00000000	      0.00000000	      0.00000000	      0.00000000	     -0.67130081	    -12.77337121	      0.92593857	      9.50091054
      0.98750000	      4.76386066	     -2.88460396	     -7.76142009	      0.46552175	      1.04447579	      0.34797080	     -6.69902650	      7.17012260	      3.07836448	    -12.19237302	      9.58886790	     -6.25052589	      6.39221815	      8.80668217	     -9.70023630	    -10.17578846	    -53.66442449	      0.80444367	      0.00000000	      0.00000000	      0.00000000	      0.00000000	      0.00000000	     -0.73591709	    -12.72585262	      0.92069212	      9.65183614
